<?xml version="1.0" encoding="UTF-8" standalone="no"?>
<!DOCTYPE svg PUBLIC "-//W3C//DTD SVG 1.1//EN"
 "http://www.w3.org/Graphics/SVG/1.1/DTD/svg11.dtd">
<!-- Generated by graphviz version 3.0.0 (20220315.2325)
 -->
<!-- Pages: 1 -->
<svg width="524pt" height="305pt"
 viewBox="0.00 0.00 524.00 305.00" xmlns="http://www.w3.org/2000/svg" xmlns:xlink="http://www.w3.org/1999/xlink">
<g id="graph0" class="graph" transform="scale(1 1) rotate(0) translate(4 301)">
<polygon fill="white" stroke="transparent" points="-4,4 -4,-301 520,-301 520,4 -4,4"/>
<!-- 22504976397504 -->
<g id="node1" class="node">
<title>22504976397504</title>
<polygon fill="none" stroke="black" points="158,-36 0,-36 0,0 158,0 158,-36"/>
<text text-anchor="middle" x="79" y="-14.3" font-family="Times,serif" font-size="14.00">get_max_per_row &lt;map&gt;</text>
</g>
<!-- 22504976396352 -->
<g id="node2" class="node">
<title>22504976396352</title>
<polygon fill="none" stroke="black" points="346.5,-123 163.5,-123 163.5,-87 346.5,-87 346.5,-123"/>
<text text-anchor="middle" x="255" y="-101.3" font-family="Times,serif" font-size="14.00">convert_to_dask_array &lt;map&gt;</text>
</g>
<!-- 22504976396352&#45;&gt;22504976397504 -->
<g id="edge3" class="edge">
<title>22504976396352&#45;&gt;22504976397504</title>
<path fill="none" stroke="black" stroke-dasharray="5,2" d="M219.38,-86.8C191.74,-73.45 153.25,-54.86 123.57,-40.52"/>
<polygon fill="black" stroke="black" points="124.79,-37.23 114.26,-36.03 121.75,-43.53 124.79,-37.23"/>
<text text-anchor="middle" x="195" y="-57.8" font-family="Times,serif" font-size="14.00">image</text>
</g>
<!-- 22504976396976 -->
<g id="node4" class="node">
<title>22504976396976</title>
<polygon fill="none" stroke="black" points="333.5,-36 176.5,-36 176.5,0 333.5,0 333.5,-36"/>
<text text-anchor="middle" x="255" y="-14.3" font-family="Times,serif" font-size="14.00">get_min_per_row &lt;map&gt;</text>
</g>
<!-- 22504976396352&#45;&gt;22504976396976 -->
<g id="edge4" class="edge">
<title>22504976396352&#45;&gt;22504976396976</title>
<path fill="none" stroke="black" stroke-dasharray="5,2" d="M255,-86.8C255,-75.16 255,-59.55 255,-46.24"/>
<polygon fill="black" stroke="black" points="258.5,-46.18 255,-36.18 251.5,-46.18 258.5,-46.18"/>
<text text-anchor="middle" x="272" y="-57.8" font-family="Times,serif" font-size="14.00">image</text>
</g>
<!-- 22504976397936 -->
<g id="node6" class="node">
<title>22504976397936</title>
<polygon fill="none" stroke="black" points="516,-36 352,-36 352,0 516,0 516,-36"/>
<text text-anchor="middle" x="434" y="-14.3" font-family="Times,serif" font-size="14.00">get_mean_per_row &lt;map&gt;</text>
</g>
<!-- 22504976396352&#45;&gt;22504976397936 -->
<g id="edge1" class="edge">
<title>22504976396352&#45;&gt;22504976397936</title>
<path fill="none" stroke="black" stroke-dasharray="5,2" d="M291.22,-86.8C319.46,-73.39 358.82,-54.7 389.07,-40.34"/>
<polygon fill="black" stroke="black" points="390.6,-43.48 398.14,-36.03 387.6,-37.16 390.6,-43.48"/>
<text text-anchor="middle" x="373" y="-57.8" font-family="Times,serif" font-size="14.00">image</text>
</g>
<!-- 22504976383280 -->
<g id="node3" class="node">
<title>22504976383280</title>
<polygon fill="none" stroke="black" points="319,-210 191,-210 191,-174 319,-174 319,-210"/>
<text text-anchor="middle" x="255" y="-188.3" font-family="Times,serif" font-size="14.00">read_images &lt;map&gt;</text>
</g>
<!-- 22504976383280&#45;&gt;22504976396352 -->
<g id="edge2" class="edge">
<title>22504976383280&#45;&gt;22504976396352</title>
<path fill="none" stroke="black" stroke-dasharray="5,2" d="M255,-173.8C255,-162.16 255,-146.55 255,-133.24"/>
<polygon fill="black" stroke="black" points="258.5,-133.18 255,-123.18 251.5,-133.18 258.5,-133.18"/>
<text text-anchor="middle" x="272" y="-144.8" font-family="Times,serif" font-size="14.00">image</text>
</g>
<!-- 22504976396496 -->
<g id="node5" class="node">
<title>22504976396496</title>
<ellipse fill="none" stroke="black" cx="255" cy="-279" rx="59.29" ry="18"/>
<text text-anchor="middle" x="255" y="-275.3" font-family="Times,serif" font-size="14.00">Constant[list]</text>
</g>
<!-- 22504976396496&#45;&gt;22504976383280 -->
<g id="edge5" class="edge">
<title>22504976396496&#45;&gt;22504976383280</title>
<path fill="none" stroke="black" stroke-dasharray="5,2" d="M255,-260.8C255,-249.16 255,-233.55 255,-220.24"/>
<polygon fill="black" stroke="black" points="258.5,-220.18 255,-210.18 251.5,-220.18 258.5,-220.18"/>
<text text-anchor="middle" x="284" y="-231.8" font-family="Times,serif" font-size="14.00">image_file</text>
</g>
</g>
</svg>
