<?xml version="1.0" encoding="UTF-8" standalone="no"?>
<!DOCTYPE svg PUBLIC "-//W3C//DTD SVG 1.1//EN"
 "http://www.w3.org/Graphics/SVG/1.1/DTD/svg11.dtd">
<!-- Generated by graphviz version 4.0.0 (0)
 -->
<!-- Pages: 1 -->
<svg width="528pt" height="305pt"
 viewBox="0.00 0.00 528.00 305.00" xmlns="http://www.w3.org/2000/svg" xmlns:xlink="http://www.w3.org/1999/xlink">
<g id="graph0" class="graph" transform="scale(1 1) rotate(0) translate(4 301)">
<polygon fill="white" stroke="transparent" points="-4,4 -4,-301 524,-301 524,4 -4,4"/>
<!-- 140625563270112 -->
<g id="node1" class="node">
<title>140625563270112</title>
<polygon fill="none" stroke="black" points="160,-36 0,-36 0,0 160,0 160,-36"/>
<text text-anchor="middle" x="80" y="-14.3" font-family="Times,serif" font-size="14.00">get_max_per_row &lt;map&gt;</text>
</g>
<!-- 140625563268816 -->
<g id="node2" class="node">
<title>140625563268816</title>
<polygon fill="none" stroke="black" points="322,-210 192,-210 192,-174 322,-174 322,-210"/>
<text text-anchor="middle" x="257" y="-188.3" font-family="Times,serif" font-size="14.00">read_images &lt;map&gt;</text>
</g>
<!-- 140625563269008 -->
<g id="node3" class="node">
<title>140625563269008</title>
<polygon fill="none" stroke="black" points="349.5,-123 164.5,-123 164.5,-87 349.5,-87 349.5,-123"/>
<text text-anchor="middle" x="257" y="-101.3" font-family="Times,serif" font-size="14.00">convert_to_dask_array &lt;map&gt;</text>
</g>
<!-- 140625563268816&#45;&gt;140625563269008 -->
<g id="edge5" class="edge">
<title>140625563268816&#45;&gt;140625563269008</title>
<path fill="none" stroke="black" stroke-dasharray="5,2" d="M257,-173.8C257,-162.16 257,-146.55 257,-133.24"/>
<polygon fill="black" stroke="black" points="260.5,-133.18 257,-123.18 253.5,-133.18 260.5,-133.18"/>
<text text-anchor="middle" x="274" y="-144.8" font-family="Times,serif" font-size="14.00">image</text>
</g>
<!-- 140625563269008&#45;&gt;140625563270112 -->
<g id="edge3" class="edge">
<title>140625563269008&#45;&gt;140625563270112</title>
<path fill="none" stroke="black" stroke-dasharray="5,2" d="M221.18,-86.8C193.38,-73.45 154.67,-54.86 124.82,-40.52"/>
<polygon fill="black" stroke="black" points="125.99,-37.2 115.46,-36.03 122.96,-43.51 125.99,-37.2"/>
<text text-anchor="middle" x="197" y="-57.8" font-family="Times,serif" font-size="14.00">image</text>
</g>
<!-- 140625563269584 -->
<g id="node5" class="node">
<title>140625563269584</title>
<polygon fill="none" stroke="black" points="336,-36 178,-36 178,0 336,0 336,-36"/>
<text text-anchor="middle" x="257" y="-14.3" font-family="Times,serif" font-size="14.00">get_min_per_row &lt;map&gt;</text>
</g>
<!-- 140625563269008&#45;&gt;140625563269584 -->
<g id="edge4" class="edge">
<title>140625563269008&#45;&gt;140625563269584</title>
<path fill="none" stroke="black" stroke-dasharray="5,2" d="M257,-86.8C257,-75.16 257,-59.55 257,-46.24"/>
<polygon fill="black" stroke="black" points="260.5,-46.18 257,-36.18 253.5,-46.18 260.5,-46.18"/>
<text text-anchor="middle" x="274" y="-57.8" font-family="Times,serif" font-size="14.00">image</text>
</g>
<!-- 140625563270544 -->
<g id="node6" class="node">
<title>140625563270544</title>
<polygon fill="none" stroke="black" points="520,-36 354,-36 354,0 520,0 520,-36"/>
<text text-anchor="middle" x="437" y="-14.3" font-family="Times,serif" font-size="14.00">get_mean_per_row &lt;map&gt;</text>
</g>
<!-- 140625563269008&#45;&gt;140625563270544 -->
<g id="edge2" class="edge">
<title>140625563269008&#45;&gt;140625563270544</title>
<path fill="none" stroke="black" stroke-dasharray="5,2" d="M293.43,-86.8C321.82,-73.39 361.4,-54.7 391.81,-40.34"/>
<polygon fill="black" stroke="black" points="393.39,-43.47 400.94,-36.03 390.4,-37.14 393.39,-43.47"/>
<text text-anchor="middle" x="374" y="-57.8" font-family="Times,serif" font-size="14.00">image</text>
</g>
<!-- 140625563269104 -->
<g id="node4" class="node">
<title>140625563269104</title>
<ellipse fill="none" stroke="black" cx="257" cy="-279" rx="58.49" ry="18"/>
<text text-anchor="middle" x="257" y="-275.3" font-family="Times,serif" font-size="14.00">Constant[list]</text>
</g>
<!-- 140625563269104&#45;&gt;140625563268816 -->
<g id="edge1" class="edge">
<title>140625563269104&#45;&gt;140625563268816</title>
<path fill="none" stroke="black" stroke-dasharray="5,2" d="M257,-260.8C257,-249.16 257,-233.55 257,-220.24"/>
<polygon fill="black" stroke="black" points="260.5,-220.18 257,-210.18 253.5,-220.18 260.5,-220.18"/>
<text text-anchor="middle" x="286" y="-231.8" font-family="Times,serif" font-size="14.00">image_file</text>
</g>
</g>
</svg>
